<?xml version="1.0" encoding="utf-8"?>
<!-- Generator: Adobe Illustrator 19.1.0, SVG Export Plug-In . SVG Version: 6.00 Build 0)  -->
<svg version="1.1" id="Layer_1" xmlns="http://www.w3.org/2000/svg" xmlns:xlink="http://www.w3.org/1999/xlink" x="0px" y="0px"
	 viewBox="0 0 13.5 8.7" style="enable-background:new 0 0 13.5 8.7;" xml:space="preserve">
<style type="text/css">
	.st0{fill:none;stroke:#000000;stroke-width:2;stroke-miterlimit:10;}
	.st1{fill:none;stroke:#F90D54;stroke-miterlimit:10;}
</style>
<g>
	<line class="st0" x1="-302.7" y1="111.6" x2="-302.7" y2="138.1"/>
	<polyline class="st0" points="-312.8,121.7 -302.7,111.6 -292.6,121.7 	"/>
	<path class="st0" d="M-292.6,132.2h7c1.9,0,3.5,1.6,3.5,3.5v9.1c0,1.9-1.6,3.5-3.5,3.5h-34.2c-1.9,0-3.5-1.6-3.5-3.5v-9.1
		c0-1.9,1.6-3.5,3.5-3.5h7"/>
</g>
<g>
	<path class="st1" d="M-66.5,3.8l5-3.2c0.3-0.2,0.7,0,0.7,0.4v6.7c0,0.4-0.4,0.6-0.7,0.4l-5-3.5C-66.8,4.3-66.8,3.9-66.5,3.8z"/>
	<path class="st1" d="M-60,3.8l5-3.2c0.3-0.2,0.7,0,0.7,0.4v6.7c0,0.4-0.4,0.6-0.7,0.4l-5-3.5C-60.2,4.3-60.2,3.9-60,3.8z"/>
</g>
<g>
	<path class="st1" d="M12.8,3.8l-5-3.2C7.5,0.4,7,0.6,7,1v6.7c0,0.4,0.4,0.6,0.7,0.4l5-3.5C13.1,4.3,13.1,3.9,12.8,3.8z"/>
	<path class="st1" d="M6.2,3.8l-5-3.2C0.9,0.4,0.5,0.6,0.5,1v6.7c0,0.4,0.4,0.6,0.7,0.4l5-3.5C6.5,4.3,6.5,3.9,6.2,3.8z"/>
</g>
</svg>
