<?xml version="1.0" encoding="UTF-8" standalone="no"?>
<svg width="71px" height="99px" viewBox="0 0 71 99" version="1.1" xmlns="http://www.w3.org/2000/svg" xmlns:xlink="http://www.w3.org/1999/xlink" xmlns:sketch="http://www.bohemiancoding.com/sketch/ns">
    <!-- Generator: Sketch 3.4.4 (17249) - http://www.bohemiancoding.com/sketch -->
    <title>radio-control</title>
    <desc>Created with Sketch.</desc>
    <defs></defs>
    <g id="Page-1" stroke="none" stroke-width="1" fill="none" fill-rule="evenodd" sketch:type="MSPage">
        <g id="radio-control" sketch:type="MSLayerGroup" transform="translate(2.000000, 2.000000)">
            <g id="Group" sketch:type="MSShapeGroup">
                <path d="M66.2,94.9 L55.9,80.5 L55.9,61.8 C55.9,54.8 49.4,51.4 41.5,44.7" id="Shape" stroke="#231F20" stroke-width="5"></path>
                <path d="M47.7,70.3 L36.4,59 C34.7,57.3 31.9,57.3 30.2,59 C28.5,60.7 28.5,63.5 30.2,65.2 L39.4,78.5 L39.4,84.8 C39.4,87.4 40.2,89.9 41.7,92 L43.9,95" id="Shape" stroke="#231F20" stroke-width="5"></path>
                <path d="M29.2,86.7 L6.7,86.7 C3.3,86.7 0.5,83.9 0.5,80.5 L0.5,35.4 C0.5,32 3.3,29.2 6.7,29.2 L35.4,29.2 C38.8,29.2 41.6,32 41.6,35.4 L41.6,55.9" id="Shape" stroke="#231F20" stroke-width="5"></path>
                <path d="M12.8,55.9 C11.7,55.9 10.7,56.8 10.7,58 C10.7,59.1 11.6,60.1 12.8,60.1 C13.9,60.1 14.9,59.2 14.9,58 C14.9,56.8 13.9,55.9 12.8,55.9 L12.8,55.9 L12.8,55.9 Z" id="Shape" fill="#231F20"></path>
                <path d="M12.8,64.1 C11.7,64.1 10.7,65 10.7,66.2 C10.7,67.3 11.6,68.3 12.8,68.3 C13.9,68.3 14.9,67.4 14.9,66.2 C14.9,65 13.9,64.1 12.8,64.1 L12.8,64.1 L12.8,64.1 Z" id="Shape" fill="#231F20"></path>
                <path d="M12.8,72.3 C11.7,72.3 10.7,73.2 10.7,74.4 C10.7,75.5 11.6,76.5 12.8,76.5 C13.9,76.5 14.9,75.6 14.9,74.4 C14.9,73.3 13.9,72.3 12.8,72.3 L12.8,72.3 L12.8,72.3 Z" id="Shape" fill="#231F20"></path>
                <path d="M21,55.9 C19.9,55.9 18.9,56.8 18.9,58 C18.9,59.1 19.8,60.1 21,60.1 C22.1,60.1 23.1,59.2 23.1,58 C23.1,56.8 22.2,55.9 21,55.9 L21,55.9 L21,55.9 Z" id="Shape" fill="#231F20"></path>
                <path d="M21,64.1 C19.9,64.1 18.9,65 18.9,66.2 C18.9,67.3 19.8,68.3 21,68.3 C22.1,68.3 23.1,67.4 23.1,66.2 C23.1,65 22.2,64.1 21,64.1 L21,64.1 L21,64.1 Z" id="Shape" fill="#231F20"></path>
                <path d="M21,72.3 C19.9,72.3 18.9,73.2 18.9,74.4 C18.9,75.5 19.8,76.5 21,76.5 C22.1,76.5 23.1,75.6 23.1,74.4 C23.1,73.3 22.2,72.3 21,72.3 L21,72.3 L21,72.3 Z" id="Shape" fill="#231F20"></path>
                <path d="M40.6,6.4 C35.1,2.7 28.4,0.5 21.3,0.5 C14.1,0.5 7.5,2.7 1.9,6.4" id="Shape" stroke="#231F20" stroke-width="5"></path>
                <path d="M36.1,13.2 C31.9,10.4 26.8,8.7 21.3,8.7 C15.8,8.7 10.7,10.4 6.5,13.2" id="Shape" stroke="#231F20" stroke-width="5"></path>
                <path d="M31.5,20 C28.6,18 25,16.9 21.3,16.9 C17.5,16.9 14,18 11.1,20" id="Shape" stroke="#231F20" stroke-width="5"></path>
                <rect id="Rectangle-path" stroke="#231F20" stroke-width="5" x="12.8" y="41.6" width="16.2" height="8.2"></rect>
            </g>
        </g>
    </g>
</svg>