<?xml version="1.0" encoding="utf-8"?>
<!-- Generator: Adobe Illustrator 19.1.0, SVG Export Plug-In . SVG Version: 6.00 Build 0)  -->
<svg version="1.1" id="Layer_1" xmlns="http://www.w3.org/2000/svg" xmlns:xlink="http://www.w3.org/1999/xlink" x="0px" y="0px"
	 viewBox="0 0 23 23" style="enable-background:new 0 0 23 23;" xml:space="preserve">
<style type="text/css">
	.st0{fill:none;stroke:#000000;stroke-linejoin:round;stroke-miterlimit:10;}
	.st1{fill:none;stroke:#000000;stroke-linecap:round;stroke-linejoin:round;stroke-miterlimit:10;}
</style>
<g>
	<path class="st1" d="M22.5,11.3c0.1,6.1-4.9,11.1-11,11.2c-6.1,0.1-10.9-4.7-11-10.8C0.4,5.6,5.4,0.6,11.5,0.5
		C17.6,0.4,22.4,5.2,22.5,11.3z"/>
	<line class="st1" x1="11.5" y1="13" x2="11.5" y2="6"/>
	<path class="st0" d="M12,16.5c0,0.3-0.2,0.5-0.5,0.5l0,0c-0.3,0-0.5-0.2-0.5-0.5l0,0c0-0.3,0.2-0.5,0.5-0.5l0,0
		C11.8,16,12,16.2,12,16.5L12,16.5z"/>
</g>
</svg>
